<svg width="24" height="25" viewBox="0 0 24 25" fill="none" xmlns="http://www.w3.org/2000/svg">
<g clip-path="url(#clip0_23778:35513)">
<path fill-rule="evenodd" clip-rule="evenodd" d="M11.6975 0.116455C18.1586 0.116455 23.3951 5.35295 23.3951 11.814C23.3951 17.6537 19.1182 22.4926 13.5253 23.3699V15.1953H16.251L16.7695 11.814L16.7694 11.814H13.5253V9.6207C13.5253 8.69541 13.9777 7.79301 15.4307 7.79301H16.9066V4.91428C16.9066 4.91428 16.9066 4.91427 16.9066 4.91426C16.9034 4.91371 16.8201 4.89959 16.6775 4.87859C16.5206 4.85549 16.2919 4.82411 16.0187 4.79336C15.5316 4.73856 14.9031 4.68579 14.2883 4.68579C11.6152 4.68579 9.86975 6.30561 9.86975 9.23687V11.814H6.89966V15.1953H6.89976V15.1953H9.86975V23.3699C9.86978 23.3699 9.86981 23.3699 9.86985 23.3699C4.27692 22.4926 0 17.6537 0 11.814C0 5.35295 5.23649 0.116455 11.6975 0.116455Z" fill="white"/>
</g>
<defs>
<clipPath id="clip0_23778:35513">
<rect width="24" height="24" fill="white" transform="translate(0 0.116455)"/>
</clipPath>
</defs>
</svg>
