<svg width="25" height="24" viewBox="0 0 25 24" fill="none" xmlns="http://www.w3.org/2000/svg">
<g clip-path="url(#clip0_23764:27342)">
<path d="M23.5546 11.6975C23.5546 5.23649 18.3181 0 11.857 0C5.39592 0 0.159424 5.23649 0.159424 11.6975C0.159424 17.5372 4.43635 22.3762 10.0293 23.2535V15.0789H7.05918V11.6975H10.0293V9.12043C10.0293 6.18923 11.7747 4.56936 14.4478 4.56936C15.7272 4.56936 17.0661 4.79783 17.0661 4.79783V7.67655H15.5901C14.1371 7.67655 13.6847 8.57895 13.6847 9.50425V11.6975H16.929L16.4104 15.0789H13.6847V23.2535C19.2776 22.3762 23.5546 17.5372 23.5546 11.6975Z" fill="#3D5A96"/>
<path d="M16.4103 15.0789L16.9289 11.6975H13.6846V9.50423C13.6846 8.57894 14.137 7.67648 15.5901 7.67648H17.066V4.7978C17.066 4.7978 15.7271 4.56934 14.4477 4.56934C11.7747 4.56934 10.0292 6.18916 10.0292 9.12042V11.6975H7.05908V15.0789H10.0292V23.2535C10.6255 23.3471 11.2355 23.3951 11.8569 23.3951C12.4783 23.3951 13.0883 23.3471 13.6846 23.2535V15.0789H16.4103Z" fill="white"/>
</g>
<defs>
<clipPath id="clip0_23764:27342">
<rect width="24" height="24" fill="white" transform="translate(0.159424)"/>
</clipPath>
</defs>
</svg>
