<svg width="24" height="25" viewBox="0 0 24 25" fill="none" xmlns="http://www.w3.org/2000/svg">
<g clip-path="url(#clip0_23778:35520)">
<path fill-rule="evenodd" clip-rule="evenodd" d="M11.9793 0.116455C5.36332 0.116455 0 5.35364 0 11.814C0 18.2744 5.36332 23.5116 11.9793 23.5116C18.5953 23.5116 23.9586 18.2744 23.9586 11.814C23.9586 5.35364 18.5953 0.116455 11.9793 0.116455ZM9.04723 4.91062C9.80594 4.8769 10.0483 4.86865 11.9801 4.86865H11.9778C13.9101 4.86865 14.1517 4.8769 14.9104 4.91062C15.6676 4.94447 16.1848 5.06153 16.6382 5.23329C17.1064 5.41054 17.5021 5.64785 17.8977 6.03419C18.2934 6.42024 18.5365 6.80775 18.7187 7.26455C18.8935 7.70615 19.0135 8.21089 19.0491 8.95027C19.0832 9.69113 19.0921 9.92787 19.0921 11.8141C19.0921 13.7004 19.0832 13.9365 19.0491 14.6774C19.0135 15.4165 18.8935 15.9214 18.7187 16.3631C18.5365 16.8198 18.2934 17.2073 17.8977 17.5934C17.5026 17.9797 17.1063 18.2176 16.6386 18.395C16.1861 18.5668 15.6686 18.6838 14.9114 18.7177C14.1527 18.7514 13.911 18.7596 11.9792 18.7596C10.0476 18.7596 9.80531 18.7514 9.04666 18.7177C8.28959 18.6838 7.77258 18.5668 7.31999 18.395C6.85249 18.2176 6.45567 17.9797 6.06046 17.5934C5.66496 17.2073 5.42194 16.8198 5.24012 16.363C5.06438 15.9214 4.9445 15.4167 4.90967 14.6773C4.8753 13.9364 4.8667 13.7004 4.8667 11.8141C4.8667 9.92787 4.87559 9.69101 4.90953 8.95015C4.94361 8.21101 5.06363 7.70615 5.23997 7.26442C5.42224 6.80775 5.66526 6.42024 6.0609 6.03419C6.45624 5.64799 6.85306 5.41069 7.32093 5.23329C7.77314 5.06153 8.29003 4.94447 9.04723 4.91062ZM11.743 6.12022C11.5992 6.12015 11.4659 6.1201 11.342 6.12029V6.11855C10.0164 6.12 9.76205 6.12868 9.1059 6.15762C8.41243 6.18873 8.03588 6.30159 7.78514 6.3971C7.45325 6.52326 7.21615 6.67378 6.96719 6.91686C6.71822 7.15993 6.56386 7.39144 6.43489 7.71556C6.33756 7.96042 6.22169 8.32793 6.18998 9.0051C6.15589 9.73729 6.14908 9.95605 6.14908 11.8108C6.14908 13.6655 6.15589 13.8855 6.18998 14.6177C6.22154 15.2949 6.33756 15.6624 6.43489 15.9069C6.56411 16.2312 6.71822 16.4621 6.96719 16.7052C7.21615 16.9483 7.45325 17.0988 7.78514 17.2247C8.03607 17.3197 8.41243 17.4329 9.1059 17.4642C9.85571 17.4975 10.0808 17.5047 11.9801 17.5047C13.8792 17.5047 14.1044 17.4975 14.8542 17.4642C15.5478 17.4332 15.9244 17.3204 16.1749 17.2249C16.5069 17.0989 16.7433 16.9485 16.9922 16.7053C17.2411 16.4625 17.3956 16.2316 17.5245 15.9075C17.6219 15.6629 17.7377 15.2954 17.7695 14.6183C17.8035 13.8861 17.811 13.6661 17.811 11.8125C17.811 9.95895 17.8035 9.73901 17.7695 9.00689C17.7379 8.32965 17.6219 7.96215 17.5245 7.71759C17.3953 7.39347 17.2411 7.16196 16.9922 6.91889C16.7434 6.67581 16.5067 6.52529 16.1749 6.39944C15.9241 6.30436 15.5478 6.19119 14.8542 6.16022C14.1043 6.12694 13.8792 6.12029 11.9801 6.12029L11.743 6.12022ZM15.7768 7.27353C15.3056 7.27353 14.9233 7.64639 14.9233 8.1067C14.9233 8.56682 15.3056 8.94018 15.7768 8.94018C16.248 8.94018 16.6303 8.56682 16.6303 8.1067C16.6303 7.64658 16.248 7.27322 15.7768 7.27322V7.27353ZM8.32742 11.8141C8.32742 9.84442 9.96283 8.24744 11.98 8.24738C13.9972 8.24738 15.6322 9.84436 15.6322 11.8141C15.6322 13.7839 13.9973 15.3802 11.9801 15.3802C9.96289 15.3802 8.32742 13.7839 8.32742 11.8141ZM11.9801 9.49901C13.2894 9.49901 14.351 10.5355 14.351 11.8141C14.351 13.0927 13.2894 14.1293 11.9801 14.1293C10.6706 14.1293 9.60914 13.0927 9.60914 11.8141C9.60914 10.5355 10.6706 9.49901 11.9801 9.49901Z" fill="white"/>
</g>
<defs>
<clipPath id="clip0_23778:35520">
<rect width="24" height="24" fill="white" transform="translate(0 0.116455)"/>
</clipPath>
</defs>
</svg>
