<?xml version="1.0" encoding="UTF-8"?>
<svg fill="none" version="1.1" viewBox="0 0 25 24" xmlns="http://www.w3.org/2000/svg">
<path d="m12.34 23.934c-2.3648 0-3.4632-0.3443-5.368-1.7217-1.2121 1.5495-5.0273 2.7547-5.1948 0.6887 0-1.5477-0.34986-2.852-0.73505-4.288-0.47177-1.7588-0.99655-3.7152-0.99655-6.5586 0-6.7803 5.5963-11.88 12.232-11.88s11.838 5.3481 11.838 11.945c0 6.5973-5.3679 11.814-11.775 11.814zm0.0963-17.897c-3.2289-0.16825-5.7486 2.0581-6.3043 5.5427-0.46013 2.8856 0.35568 6.4018 1.0535 6.5788 0.32886 0.0834 1.1716-0.5942 1.6911-1.1107 0.85443 0.5506 1.8349 0.977 2.9248 1.0338 3.3149 0.1727 6.2525-2.4052 6.4261-5.6993 0.1736-3.2941-2.4763-6.1725-5.7912-6.3453z" clip-rule="evenodd" fill="#fff" fill-rule="evenodd"/>
</svg>
