<svg width="56" height="56" viewBox="0 0 56 56" fill="none" xmlns="http://www.w3.org/2000/svg">
<rect width="56" height="56" rx="28" fill="#F0F0F1"/>
<path fill-rule="evenodd" clip-rule="evenodd" d="M35 20.5H21C20.7239 20.5 20.5 20.7239 20.5 21V35C20.5 35.2761 20.7239 35.5 21 35.5H35C35.2761 35.5 35.5 35.2761 35.5 35V21C35.5 20.7239 35.2761 20.5 35 20.5ZM21 19C19.8954 19 19 19.8954 19 21V35C19 36.1046 19.8954 37 21 37H35C36.1046 37 37 36.1046 37 35V21C37 19.8954 36.1046 19 35 19H21Z" fill="#787C82"/>
<path fill-rule="evenodd" clip-rule="evenodd" d="M31.4772 26.4623C31.7683 26.1792 32.2317 26.1792 32.5228 26.4623L36.5228 30.3511L35.4772 31.4266L32 28.046L28.5228 31.4266C28.2719 31.6706 27.8857 31.7086 27.5921 31.5183L24.5964 29.5766L20.4419 32.606L19.5581 31.394L24.1295 28.0607C24.3806 27.8776 24.7186 27.8683 24.9793 28.0373L27.906 29.9342L31.4772 26.4623Z" fill="#787C82"/>
</svg>
