<svg width="24" height="25" viewBox="0 0 24 25" fill="none" xmlns="http://www.w3.org/2000/svg">
<g clip-path="url(#clip0_23778:35527)">
<path fill-rule="evenodd" clip-rule="evenodd" d="M11.9793 0.116455C5.3633 0.116455 0 5.35364 0 11.814C0 18.2744 5.3633 23.5116 11.9793 23.5116C18.5953 23.5116 23.9586 18.2744 23.9586 11.814C23.9586 5.35364 18.5953 0.116455 11.9793 0.116455ZM11.9699 12.0371C9.94622 12.0371 8.30045 10.4296 8.30045 8.45341C8.30045 6.47661 9.94622 4.86865 11.9699 4.86865C13.994 4.86865 15.6393 6.47661 15.6393 8.45341C15.6393 10.4296 13.994 12.0371 11.9699 12.0371ZM11.9699 6.96947C12.8077 6.96947 13.4893 7.63495 13.4893 8.45341C13.4893 9.2712 12.8077 9.93716 11.9699 9.93716C11.1328 9.93716 10.4506 9.2712 10.4506 8.45341C10.4506 7.63495 11.1328 6.96947 11.9699 6.96947ZM15.5152 16.967L13.4639 14.9628C14.2108 14.7966 14.9312 14.508 15.5947 14.1009C16.0968 13.7916 16.2481 13.1433 15.9317 12.6528C15.6156 12.1612 14.9523 12.0132 14.4492 12.3225C12.9462 13.2458 11.011 13.2456 9.50885 12.3225C9.0058 12.0132 8.34232 12.1612 8.02685 12.6528C7.71043 13.1437 7.86125 13.7916 8.36342 14.1009C9.02689 14.5075 9.74727 14.7966 10.4942 14.9628L8.44268 16.967C8.02331 17.377 8.02331 18.0419 8.44312 18.452C8.65319 18.6568 8.92811 18.7593 9.20298 18.7593C9.47828 18.7593 9.75365 18.6568 9.96378 18.452L11.9788 16.4827L13.9957 18.452C14.415 18.862 15.0954 18.862 15.5152 18.452C15.9355 18.0419 15.9355 17.3766 15.5152 16.967Z" fill="white"/>
</g>
<defs>
<clipPath id="clip0_23778:35527">
<rect width="24" height="24" fill="white" transform="translate(0 0.116455)"/>
</clipPath>
</defs>
</svg>
