<svg width="137" height="30" viewBox="0 0 137 30" fill="none" xmlns="http://www.w3.org/2000/svg">
<path d="M29.7516 22.5492H28.3433C28.1939 22.5492 28.1193 22.4745 28.1193 22.3252V11.5067C28.1193 11.3573 28.1939 11.2826 28.3433 11.2826H29.3836C29.5116 11.2826 29.5916 11.3466 29.6236 11.4747L29.7676 12.0988L29.8797 12.1148C30.5412 11.4747 31.4214 11.1546 32.5203 11.1546C33.8219 11.1546 34.8888 11.5707 35.721 12.4029C36.5639 13.2351 36.9853 14.318 36.9853 15.6516C36.9853 16.9853 36.5639 18.0682 35.721 18.9004C34.8888 19.7219 33.8219 20.1327 32.5203 20.1327C31.4747 20.1327 30.6265 19.8659 29.9757 19.3325V22.3252C29.9757 22.4745 29.901 22.5492 29.7516 22.5492ZM29.9757 13.9392V17.38C30.6372 18.0415 31.4854 18.3723 32.5203 18.3723C33.2885 18.3723 33.9179 18.1269 34.4087 17.6361C34.8995 17.1346 35.1449 16.4732 35.1449 15.6516C35.1449 14.8194 34.8995 14.158 34.4087 13.6672C33.9179 13.1657 33.2885 12.915 32.5203 12.915C31.4534 12.915 30.6052 13.2564 29.9757 13.9392Z" fill="#101517"/>
<path d="M44.4638 18.9804H44.3838C43.5836 19.7486 42.5594 20.1327 41.3111 20.1327C40.3828 20.1327 39.6307 19.8819 39.0545 19.3805C38.4784 18.879 38.1903 18.2229 38.1903 17.412C38.1903 16.6119 38.4624 15.961 39.0065 15.4596C39.5613 14.9581 40.3348 14.6434 41.3271 14.5154L44.1437 14.1473V13.9552C44.1437 13.6032 43.9783 13.3418 43.6476 13.1711C43.3275 12.9897 42.9114 12.899 42.3993 12.899C41.8232 12.899 41.3271 12.9577 40.911 13.075C40.4949 13.1924 40.0628 13.3898 39.6147 13.6672C39.4546 13.7632 39.3266 13.7472 39.2306 13.6192L38.6064 12.739C38.4784 12.6003 38.4891 12.4776 38.6384 12.3709C39.748 11.56 41.0017 11.1546 42.3993 11.1546C43.4342 11.1546 44.2931 11.4053 44.9759 11.9068C45.6587 12.3976 46.0001 13.1497 46.0001 14.1633V16.9479C46.0001 17.6948 46.0695 18.2976 46.2082 18.7564L46.4162 19.4285C46.4803 19.5992 46.4322 19.7059 46.2722 19.7486L45.1359 20.1167C45.0079 20.17 44.9172 20.1273 44.8639 19.9886L44.4638 18.9804ZM44.1437 17.172V15.7157L41.3271 16.1798C40.4735 16.3185 40.0468 16.6972 40.0468 17.316C40.0468 18.0309 40.5322 18.3883 41.5031 18.3883C42.6554 18.3883 43.5356 17.9828 44.1437 17.172Z" fill="#101517"/>
<path d="M48.2698 11.2826H49.4381C49.5554 11.2826 49.6301 11.3466 49.6621 11.4747L49.8222 12.1308H49.9022C50.553 11.48 51.3318 11.1546 52.2387 11.1546C53.1243 11.1546 53.8658 11.4107 54.4632 11.9228C55.0607 12.4242 55.4448 13.0857 55.6155 13.9072C55.6475 14.0673 55.5995 14.1686 55.4715 14.2113L54.2072 14.6434C54.0578 14.6967 53.9618 14.6541 53.9191 14.5154C53.6204 13.4378 53.0016 12.899 52.0627 12.899C51.1878 12.899 50.4676 13.2778 49.9022 14.0353V19.7806C49.9022 19.93 49.8275 20.0046 49.6781 20.0046H48.2698C48.1204 20.0046 48.0457 19.93 48.0457 19.7806V11.5067C48.0457 11.3573 48.1204 11.2826 48.2698 11.2826Z" fill="#101517"/>
<path d="M57.1468 11.2826H58.3151C58.4325 11.2826 58.5072 11.3466 58.5392 11.4747L58.6992 12.1308H58.7792C59.43 11.48 60.2089 11.1546 61.1158 11.1546C62.0013 11.1546 62.7428 11.4107 63.3403 11.9228C63.9378 12.4242 64.3218 13.0857 64.4925 13.9072C64.5246 14.0673 64.4765 14.1686 64.3485 14.2113L63.0842 14.6434C62.9349 14.6967 62.8388 14.6541 62.7962 14.5154C62.4974 13.4378 61.8786 12.899 60.9397 12.899C60.0649 12.899 59.3447 13.2778 58.7792 14.0353V19.7806C58.7792 19.93 58.7045 20.0046 58.5552 20.0046H57.1468C56.9975 20.0046 56.9228 19.93 56.9228 19.7806V11.5067C56.9228 11.3573 56.9975 11.2826 57.1468 11.2826Z" fill="#101517"/>
<path d="M70.0728 12.899C69.2726 12.899 68.6165 13.1551 68.1044 13.6672C67.6029 14.1793 67.3522 14.8408 67.3522 15.6516C67.3522 16.4518 67.6029 17.108 68.1044 17.6201C68.6165 18.1322 69.2726 18.3883 70.0728 18.3883C70.8623 18.3883 71.5078 18.1322 72.0093 17.6201C72.5214 17.0973 72.7775 16.4412 72.7775 15.6516C72.7775 14.8408 72.5214 14.1793 72.0093 13.6672C71.5078 13.1551 70.8623 12.899 70.0728 12.899ZM65.4798 15.6516C65.4798 14.382 65.9279 13.3151 66.8241 12.4509C67.7203 11.5867 68.8032 11.1546 70.0728 11.1546C71.3425 11.1546 72.42 11.5867 73.3056 12.4509C74.2018 13.3151 74.6499 14.382 74.6499 15.6516C74.6499 16.9213 74.2018 17.9882 73.3056 18.8524C72.42 19.7059 71.3425 20.1327 70.0728 20.1327C68.7925 20.1327 67.7043 19.7059 66.8081 18.8524C65.9225 17.9988 65.4798 16.9319 65.4798 15.6516Z" fill="#101517"/>
<path d="M76.615 11.3146L76.791 9.58623C76.8124 9.43687 76.887 9.36218 77.0151 9.36218H78.2313C78.3807 9.36218 78.4554 9.43687 78.4554 9.58623V11.2826H80.8239C80.9733 11.2826 81.048 11.3573 81.048 11.5067V12.787C81.048 12.9363 80.9733 13.011 80.8239 13.011H78.4554V17.156C78.4554 17.5614 78.5514 17.8708 78.7435 18.0842C78.9462 18.2869 79.2236 18.3883 79.5757 18.3883C80.0131 18.3883 80.3972 18.3029 80.7279 18.1322C80.888 18.0575 80.9947 18.0895 81.048 18.2282L81.4801 19.2525C81.5441 19.3912 81.5068 19.4979 81.3681 19.5725C80.7919 19.946 80.1198 20.1327 79.3516 20.1327C78.4234 20.1327 77.7299 19.8713 77.2711 19.3485C76.823 18.815 76.599 18.1002 76.599 17.204V13.011H75.6067C75.4574 13.011 75.3827 12.9363 75.3827 12.787V11.6187C75.3827 11.4907 75.4467 11.4213 75.5747 11.4107L76.615 11.3146Z" fill="#101517"/>
<path d="M84.4205 22.5492H83.0122C82.8628 22.5492 82.7881 22.4745 82.7881 22.3252V11.5067C82.7881 11.3573 82.8628 11.2826 83.0122 11.2826H84.0524C84.1805 11.2826 84.2605 11.3466 84.2925 11.4747L84.4365 12.0988L84.5486 12.1148C85.21 11.4747 86.0902 11.1546 87.1892 11.1546C88.4908 11.1546 89.5577 11.5707 90.3899 12.4029C91.2328 13.2351 91.6542 14.318 91.6542 15.6516C91.6542 16.9853 91.2328 18.0682 90.3899 18.9004C89.5577 19.7219 88.4908 20.1327 87.1892 20.1327C86.1436 20.1327 85.2954 19.8659 84.6446 19.3325V22.3252C84.6446 22.4745 84.5699 22.5492 84.4205 22.5492ZM84.6446 13.9392V17.38C85.3061 18.0415 86.1543 18.3723 87.1892 18.3723C87.9573 18.3723 88.5868 18.1269 89.0776 17.6361C89.5684 17.1346 89.8138 16.4732 89.8138 15.6516C89.8138 14.8194 89.5684 14.158 89.0776 13.6672C88.5868 13.1657 87.9573 12.915 87.1892 12.915C86.1223 12.915 85.2741 13.2564 84.6446 13.9392Z" fill="#101517"/>
<path d="M97.5323 12.899C96.7321 12.899 96.076 13.1551 95.5639 13.6672C95.0624 14.1793 94.8117 14.8408 94.8117 15.6516C94.8117 16.4518 95.0624 17.108 95.5639 17.6201C96.076 18.1322 96.7321 18.3883 97.5323 18.3883C98.3218 18.3883 98.9673 18.1322 99.4688 17.6201C99.9809 17.0973 100.237 16.4412 100.237 15.6516C100.237 14.8408 99.9809 14.1793 99.4688 13.6672C98.9673 13.1551 98.3218 12.899 97.5323 12.899ZM92.9392 15.6516C92.9392 14.382 93.3873 13.3151 94.2836 12.4509C95.1798 11.5867 96.2627 11.1546 97.5323 11.1546C98.8019 11.1546 99.8795 11.5867 100.765 12.4509C101.661 13.3151 102.109 14.382 102.109 15.6516C102.109 16.9213 101.661 17.9882 100.765 18.8524C99.8795 19.7059 98.8019 20.1327 97.5323 20.1327C96.252 20.1327 95.1638 19.7059 94.2676 18.8524C93.382 17.9988 92.9392 16.9319 92.9392 15.6516Z" fill="#101517"/>
<path d="M106.967 11.1546C108.397 11.1546 109.645 11.5974 110.712 12.4829C110.83 12.5683 110.846 12.6643 110.76 12.771L109.96 13.7632C109.864 13.8806 109.752 13.8859 109.624 13.7792C108.877 13.1817 107.96 12.883 106.871 12.883C105.751 12.883 105.191 13.1497 105.191 13.6832C105.191 13.9392 105.335 14.1366 105.623 14.2753C105.911 14.414 106.413 14.5207 107.127 14.5954C109.699 14.8301 110.984 15.7583 110.984 17.38C110.984 18.2336 110.627 18.9057 109.912 19.3965C109.197 19.8873 108.28 20.1327 107.159 20.1327C105.57 20.1327 104.236 19.6846 103.158 18.7884C103.052 18.7137 103.046 18.607 103.142 18.4683L103.895 17.4601C103.991 17.332 104.097 17.316 104.215 17.412C105.058 18.0735 106.05 18.4043 107.191 18.4043C108.493 18.4043 109.144 18.0735 109.144 17.412C109.144 17.1026 108.973 16.8733 108.632 16.7239C108.301 16.5638 107.73 16.4465 106.919 16.3718C105.767 16.2758 104.882 16.0304 104.263 15.6356C103.655 15.2302 103.351 14.6007 103.351 13.7472C103.351 12.9683 103.687 12.3442 104.359 11.8748C105.031 11.3947 105.9 11.1546 106.967 11.1546Z" fill="#101517"/>
<path d="M113.108 11.3146L113.284 9.58623C113.305 9.43687 113.38 9.36218 113.508 9.36218H114.724C114.874 9.36218 114.948 9.43687 114.948 9.58623V11.2826H117.317C117.466 11.2826 117.541 11.3573 117.541 11.5067V12.787C117.541 12.9363 117.466 13.011 117.317 13.011H114.948V17.156C114.948 17.5614 115.044 17.8708 115.236 18.0842C115.439 18.2869 115.716 18.3883 116.068 18.3883C116.506 18.3883 116.89 18.3029 117.221 18.1322C117.381 18.0575 117.487 18.0895 117.541 18.2282L117.973 19.2525C118.037 19.3912 118 19.4979 117.861 19.5725C117.285 19.946 116.613 20.1327 115.844 20.1327C114.916 20.1327 114.223 19.8713 113.764 19.3485C113.316 18.815 113.092 18.1002 113.092 17.204V13.011H112.1C111.95 13.011 111.875 12.9363 111.875 12.787V11.6187C111.875 11.4907 111.94 11.4213 112.068 11.4107L113.108 11.3146Z" fill="#101517"/>
<path d="M126.486 17.4921L127.255 18.5323C127.34 18.6177 127.335 18.703 127.239 18.7884C126.182 19.6846 124.918 20.1327 123.446 20.1327C122.08 20.1327 120.965 19.7112 120.101 18.8684C119.237 18.0149 118.805 16.9426 118.805 15.6516C118.805 14.35 119.237 13.2778 120.101 12.4349C120.965 11.5814 122.053 11.1546 123.366 11.1546C124.657 11.1546 125.713 11.576 126.534 12.4189C127.367 13.2618 127.783 14.3393 127.783 15.6516V16.2918C127.783 16.4412 127.719 16.5158 127.591 16.5158H120.741C120.901 17.0813 121.216 17.5347 121.685 17.8762C122.165 18.2176 122.752 18.3883 123.446 18.3883C124.566 18.3883 125.494 18.0842 126.23 17.4761C126.316 17.3907 126.401 17.396 126.486 17.4921ZM123.366 12.899C122.715 12.899 122.144 13.075 121.653 13.4271C121.162 13.7792 120.853 14.2326 120.725 14.7874H125.894C125.83 14.2326 125.553 13.7792 125.062 13.4271C124.571 13.075 124.006 12.899 123.366 12.899Z" fill="#101517"/>
<path d="M129.601 11.2826H130.769C130.887 11.2826 130.961 11.3466 130.993 11.4747L131.153 12.1308H131.233C131.884 11.48 132.663 11.1546 133.57 11.1546C134.456 11.1546 135.197 11.4107 135.795 11.9228C136.392 12.4242 136.776 13.0857 136.947 13.9072C136.979 14.0673 136.931 14.1686 136.803 14.2113L135.538 14.6434C135.389 14.6967 135.293 14.6541 135.25 14.5154C134.952 13.4378 134.333 12.899 133.394 12.899C132.519 12.899 131.799 13.2778 131.233 14.0353V19.7806C131.233 19.93 131.159 20.0046 131.009 20.0046H129.601C129.452 20.0046 129.377 19.93 129.377 19.7806V11.5067C129.377 11.3573 129.452 11.2826 129.601 11.2826Z" fill="#101517"/>
<path d="M15.1055 8.69275e-05C8.4315 8.68484e-05 3.02112 5.37269 3.02112 12.0001L15.1055 12.0001L15.1055 8.69275e-05Z" fill="url(#paint0_linear_738_70)"/>
<path d="M3.02111 27.0001C3.02111 28.6569 4.3737 30.0001 6.04221 30.0001L6.04221 27.0001H3.02111Z" fill="url(#paint1_linear_738_70)"/>
<path d="M6.04221 27.0001C11.0477 27.0001 15.1055 22.9706 15.1055 18H6.04221V27.0001Z" fill="url(#paint2_linear_738_70)"/>
<path d="M15.1055 3C10.1 3 6.04221 7.02945 6.04221 12H15.1055V3Z" fill="url(#paint3_linear_738_70)"/>
<path d="M6.04221 12H15.1055V18H6.04221L6.04221 12Z" fill="url(#paint4_linear_738_70)"/>
<path d="M0 15C-2.91732e-07 18.3138 2.70519 21.0001 6.04221 21.0001L6.04221 15H0Z" fill="url(#paint5_linear_738_70)"/>
<path d="M6.04221 15H9.06332V21.0001H6.04221L6.04221 15Z" fill="url(#paint6_linear_738_70)"/>
<path d="M21.1476 9.00002C21.1476 5.6863 18.4424 3 15.1053 3V9.00002H21.1476Z" fill="url(#paint7_linear_738_70)"/>
<path d="M15.1053 13.5C16.7739 13.5 18.1265 12.1569 18.1265 10.5H15.1053L15.1053 13.5Z" fill="url(#paint8_linear_738_70)"/>
<ellipse cx="12.0845" cy="7.49988" rx="1.51055" ry="1.5" fill="white"/>
<defs>
<linearGradient id="paint0_linear_738_70" x1="13.388" y1="12.0001" x2="3.92401" y2="12.0001" gradientUnits="userSpaceOnUse">
<stop stop-color="#1FA2FF"/>
<stop offset="0.5" stop-color="#12D8FA"/>
<stop offset="1" stop-color="#A6FFCB"/>
</linearGradient>
<linearGradient id="paint1_linear_738_70" x1="0.966754" y1="27.7126" x2="7.01898" y2="-1.63959" gradientUnits="userSpaceOnUse">
<stop stop-color="#20E2AC"/>
<stop offset="0.0666667" stop-color="#20E0AC"/>
<stop offset="0.133333" stop-color="#22DCAE"/>
<stop offset="0.2" stop-color="#24D3B0"/>
<stop offset="0.266667" stop-color="#28C8B2"/>
<stop offset="0.333333" stop-color="#2CB9B6"/>
<stop offset="0.4" stop-color="#31A7BA"/>
<stop offset="0.466667" stop-color="#3793BF"/>
<stop offset="0.533333" stop-color="#3D7EC4"/>
<stop offset="0.6" stop-color="#436AC9"/>
<stop offset="0.666667" stop-color="#4858CD"/>
<stop offset="0.733333" stop-color="#4C49D1"/>
<stop offset="0.8" stop-color="#503ED3"/>
<stop offset="0.866667" stop-color="#5235D5"/>
<stop offset="0.933333" stop-color="#5431D7"/>
<stop offset="1" stop-color="#542FD7"/>
</linearGradient>
<linearGradient id="paint2_linear_738_70" x1="0.966754" y1="27.7126" x2="7.01898" y2="-1.63959" gradientUnits="userSpaceOnUse">
<stop stop-color="#20E2AC"/>
<stop offset="0.0666667" stop-color="#20E0AC"/>
<stop offset="0.133333" stop-color="#22DCAE"/>
<stop offset="0.2" stop-color="#24D3B0"/>
<stop offset="0.266667" stop-color="#28C8B2"/>
<stop offset="0.333333" stop-color="#2CB9B6"/>
<stop offset="0.4" stop-color="#31A7BA"/>
<stop offset="0.466667" stop-color="#3793BF"/>
<stop offset="0.533333" stop-color="#3D7EC4"/>
<stop offset="0.6" stop-color="#436AC9"/>
<stop offset="0.666667" stop-color="#4858CD"/>
<stop offset="0.733333" stop-color="#4C49D1"/>
<stop offset="0.8" stop-color="#503ED3"/>
<stop offset="0.866667" stop-color="#5235D5"/>
<stop offset="0.933333" stop-color="#5431D7"/>
<stop offset="1" stop-color="#542FD7"/>
</linearGradient>
<linearGradient id="paint3_linear_738_70" x1="0.966754" y1="27.7126" x2="7.01898" y2="-1.63959" gradientUnits="userSpaceOnUse">
<stop stop-color="#20E2AC"/>
<stop offset="0.0666667" stop-color="#20E0AC"/>
<stop offset="0.133333" stop-color="#22DCAE"/>
<stop offset="0.2" stop-color="#24D3B0"/>
<stop offset="0.266667" stop-color="#28C8B2"/>
<stop offset="0.333333" stop-color="#2CB9B6"/>
<stop offset="0.4" stop-color="#31A7BA"/>
<stop offset="0.466667" stop-color="#3793BF"/>
<stop offset="0.533333" stop-color="#3D7EC4"/>
<stop offset="0.6" stop-color="#436AC9"/>
<stop offset="0.666667" stop-color="#4858CD"/>
<stop offset="0.733333" stop-color="#4C49D1"/>
<stop offset="0.8" stop-color="#503ED3"/>
<stop offset="0.866667" stop-color="#5235D5"/>
<stop offset="0.933333" stop-color="#5431D7"/>
<stop offset="1" stop-color="#542FD7"/>
</linearGradient>
<linearGradient id="paint4_linear_738_70" x1="0.966754" y1="27.7126" x2="7.01898" y2="-1.63959" gradientUnits="userSpaceOnUse">
<stop stop-color="#20E2AC"/>
<stop offset="0.0666667" stop-color="#20E0AC"/>
<stop offset="0.133333" stop-color="#22DCAE"/>
<stop offset="0.2" stop-color="#24D3B0"/>
<stop offset="0.266667" stop-color="#28C8B2"/>
<stop offset="0.333333" stop-color="#2CB9B6"/>
<stop offset="0.4" stop-color="#31A7BA"/>
<stop offset="0.466667" stop-color="#3793BF"/>
<stop offset="0.533333" stop-color="#3D7EC4"/>
<stop offset="0.6" stop-color="#436AC9"/>
<stop offset="0.666667" stop-color="#4858CD"/>
<stop offset="0.733333" stop-color="#4C49D1"/>
<stop offset="0.8" stop-color="#503ED3"/>
<stop offset="0.866667" stop-color="#5235D5"/>
<stop offset="0.933333" stop-color="#5431D7"/>
<stop offset="1" stop-color="#542FD7"/>
</linearGradient>
<linearGradient id="paint5_linear_738_70" x1="0.966754" y1="27.7126" x2="7.01898" y2="-1.63959" gradientUnits="userSpaceOnUse">
<stop stop-color="#20E2AC"/>
<stop offset="0.0666667" stop-color="#20E0AC"/>
<stop offset="0.133333" stop-color="#22DCAE"/>
<stop offset="0.2" stop-color="#24D3B0"/>
<stop offset="0.266667" stop-color="#28C8B2"/>
<stop offset="0.333333" stop-color="#2CB9B6"/>
<stop offset="0.4" stop-color="#31A7BA"/>
<stop offset="0.466667" stop-color="#3793BF"/>
<stop offset="0.533333" stop-color="#3D7EC4"/>
<stop offset="0.6" stop-color="#436AC9"/>
<stop offset="0.666667" stop-color="#4858CD"/>
<stop offset="0.733333" stop-color="#4C49D1"/>
<stop offset="0.8" stop-color="#503ED3"/>
<stop offset="0.866667" stop-color="#5235D5"/>
<stop offset="0.933333" stop-color="#5431D7"/>
<stop offset="1" stop-color="#542FD7"/>
</linearGradient>
<linearGradient id="paint6_linear_738_70" x1="0.966754" y1="27.7126" x2="7.01898" y2="-1.63959" gradientUnits="userSpaceOnUse">
<stop stop-color="#20E2AC"/>
<stop offset="0.0666667" stop-color="#20E0AC"/>
<stop offset="0.133333" stop-color="#22DCAE"/>
<stop offset="0.2" stop-color="#24D3B0"/>
<stop offset="0.266667" stop-color="#28C8B2"/>
<stop offset="0.333333" stop-color="#2CB9B6"/>
<stop offset="0.4" stop-color="#31A7BA"/>
<stop offset="0.466667" stop-color="#3793BF"/>
<stop offset="0.533333" stop-color="#3D7EC4"/>
<stop offset="0.6" stop-color="#436AC9"/>
<stop offset="0.666667" stop-color="#4858CD"/>
<stop offset="0.733333" stop-color="#4C49D1"/>
<stop offset="0.8" stop-color="#503ED3"/>
<stop offset="0.866667" stop-color="#5235D5"/>
<stop offset="0.933333" stop-color="#5431D7"/>
<stop offset="1" stop-color="#542FD7"/>
</linearGradient>
<linearGradient id="paint7_linear_738_70" x1="22.5419" y1="3" x2="22.5419" y2="13.5" gradientUnits="userSpaceOnUse">
<stop stop-color="#FF52A1"/>
<stop offset="0.0666667" stop-color="#FF53A0"/>
<stop offset="0.133333" stop-color="#FF579D"/>
<stop offset="0.2" stop-color="#FF5D97"/>
<stop offset="0.266667" stop-color="#FE668F"/>
<stop offset="0.333333" stop-color="#FE7184"/>
<stop offset="0.4" stop-color="#FE7E78"/>
<stop offset="0.466667" stop-color="#FD8D6B"/>
<stop offset="0.533333" stop-color="#FD9D5C"/>
<stop offset="0.6" stop-color="#FCAC4F"/>
<stop offset="0.666667" stop-color="#FCB943"/>
<stop offset="0.733333" stop-color="#FCC438"/>
<stop offset="0.8" stop-color="#FBCD30"/>
<stop offset="0.866667" stop-color="#FBD32A"/>
<stop offset="0.933333" stop-color="#FBD727"/>
<stop offset="1" stop-color="#FBD826"/>
</linearGradient>
<linearGradient id="paint8_linear_738_70" x1="22.5419" y1="3" x2="22.5419" y2="13.5" gradientUnits="userSpaceOnUse">
<stop stop-color="#FF52A1"/>
<stop offset="0.0666667" stop-color="#FF53A0"/>
<stop offset="0.133333" stop-color="#FF579D"/>
<stop offset="0.2" stop-color="#FF5D97"/>
<stop offset="0.266667" stop-color="#FE668F"/>
<stop offset="0.333333" stop-color="#FE7184"/>
<stop offset="0.4" stop-color="#FE7E78"/>
<stop offset="0.466667" stop-color="#FD8D6B"/>
<stop offset="0.533333" stop-color="#FD9D5C"/>
<stop offset="0.6" stop-color="#FCAC4F"/>
<stop offset="0.666667" stop-color="#FCB943"/>
<stop offset="0.733333" stop-color="#FCC438"/>
<stop offset="0.8" stop-color="#FBCD30"/>
<stop offset="0.866667" stop-color="#FBD32A"/>
<stop offset="0.933333" stop-color="#FBD727"/>
<stop offset="1" stop-color="#FBD826"/>
</linearGradient>
</defs>
</svg>
