<svg width="14" height="19" viewBox="0 0 14 19" fill="none" xmlns="http://www.w3.org/2000/svg">
<path fill-rule="evenodd" clip-rule="evenodd" d="M3.46967 3.96978L7.00001 0.439453L10.5303 3.96978L9.46967 5.03044L7.75001 3.31078V14.5001H6.25001L6.25001 3.31077L4.53033 5.03044L3.46967 3.96978Z" fill="#787C82"/>
<path d="M3.5 8.00011H2C0.895431 8.00011 0 8.89554 0 10.0001V17.0001C0 18.1047 0.89543 19.0001 2 19.0001H12C13.1046 19.0001 14 18.1047 14 17.0001V10.0001C14 8.89554 13.1046 8.00011 12 8.00011H10.5V9.50011H12C12.2761 9.50011 12.5 9.72397 12.5 10.0001V17.0001C12.5 17.2763 12.2761 17.5001 12 17.5001H2C1.72386 17.5001 1.5 17.2763 1.5 17.0001V10.0001C1.5 9.72397 1.72386 9.50011 2 9.50011H3.5V8.00011Z" fill="#787C82"/>
</svg>
