<svg width="24" height="25" viewBox="0 0 24 25" fill="none" xmlns="http://www.w3.org/2000/svg">
<g clip-path="url(#clip0_23778:35533)">
<path fill-rule="evenodd" clip-rule="evenodd" d="M23.9586 11.814C23.9586 18.2744 18.5953 23.5116 11.9793 23.5116C5.3633 23.5116 0 18.2744 0 11.814C0 5.35364 5.3633 0.116455 11.9793 0.116455C18.5953 0.116455 23.9586 5.35364 23.9586 11.814ZM8.02302 10.7422C6.82263 11.2539 5.58922 11.7798 4.46139 12.3864L4.4613 12.3865C3.87258 12.8074 4.65512 13.1051 5.38919 13.3843C5.50589 13.4287 5.62137 13.4727 5.72991 13.5166C5.8202 13.5437 5.91201 13.5722 6.00505 13.6012C6.8215 13.8552 7.73195 14.1385 8.52457 13.7124C9.82674 12.982 11.0556 12.1375 12.2835 11.2937C12.6856 11.0173 13.0877 10.741 13.4922 10.4688C13.5112 10.4569 13.5327 10.4433 13.5562 10.4285C13.901 10.2102 14.6757 9.72001 14.389 10.3959C13.711 11.12 12.9847 11.761 12.2545 12.4054C11.7624 12.8397 11.2685 13.2756 10.7863 13.7396C10.3663 14.0729 9.93028 14.7429 10.4005 15.2095C11.4831 15.9496 12.5827 16.6717 13.6817 17.3935C14.0398 17.6287 14.3979 17.8639 14.7554 18.0996C15.3604 18.5713 16.3061 18.1898 16.4391 17.4527C16.4983 17.1135 16.5577 16.7743 16.6171 16.4351C16.9453 14.5613 17.2736 12.6869 17.5636 10.807C17.603 10.5122 17.6477 10.2174 17.6924 9.92253C17.8008 9.20737 17.9093 8.49131 17.9432 7.77226C17.8558 7.05484 16.965 7.21256 16.4692 7.37392C13.921 8.32069 11.3983 9.33773 8.88552 10.3727C8.60125 10.4957 8.3131 10.6185 8.02302 10.7422Z" fill="white"/>
</g>
<defs>
<clipPath id="clip0_23778:35533">
<rect width="24" height="24" fill="white" transform="translate(0 0.116455)"/>
</clipPath>
</defs>
</svg>
