<svg width="24" height="24" viewBox="0 0 24 24" fill="none" xmlns="http://www.w3.org/2000/svg">
<path d="M6.33731 7.17057C6.23296 6.47927 6.76823 5.85714 7.46737 5.85714H16.5326C17.2317 5.85714 17.767 6.47927 17.6626 7.17058L15.9807 18.3134C15.8963 18.8724 15.4159 19.2857 14.8506 19.2857H9.14931C8.58399 19.2857 8.10362 18.8724 8.01925 18.3134L6.33731 7.17057Z" stroke="#787C82" stroke-width="1.71429"/>
<rect x="4" y="5" width="16" height="2" fill="#787C82"/>
<path d="M14.2858 5C14.2858 5 13.2624 5 12.0001 5C10.7377 5 9.71436 5 9.71436 5C9.71436 3.73763 10.7377 2.71429 12.0001 2.71429C13.2624 2.71429 14.2858 3.73763 14.2858 5Z" fill="#787C82"/>
</svg>
