<svg width="24" height="25" viewBox="0 0 24 25" fill="none" xmlns="http://www.w3.org/2000/svg">
<g clip-path="url(#clip0_23778:35539)">
<path fill-rule="evenodd" clip-rule="evenodd" d="M24 12.1165C24 18.7439 18.6274 24.1165 12 24.1165C5.37258 24.1165 0 18.7439 0 12.1165C0 5.48904 5.37258 0.116455 12 0.116455C18.6274 0.116455 24 5.48904 24 12.1165ZM5 9C5.11368 13.997 7.84193 17 12.6252 17H12.8964V14.1411C14.654 14.3013 15.983 15.4785 16.5165 17H19C18.3179 14.7257 16.5252 13.4685 15.4059 12.988C16.5252 12.3954 18.0992 10.954 18.4752 9H16.2191C15.7294 10.5856 14.278 12.027 12.8964 12.1632V9H10.6402V14.5415C9.24106 14.2212 7.4747 12.6677 7.396 9H5Z" fill="white"/>
</g>
<defs>
<clipPath id="clip0_23778:35539">
<rect width="24" height="24" fill="white" transform="translate(0 0.116455)"/>
</clipPath>
</defs>
</svg>
